Coordinates
version=1
nRows=13
nColumns=63
inDegrees=yes

Units are S.I. units (second, meters, Newtons, ...)
If the header above contains a line with 'inDegrees', this indicates whether rotational values are in degrees (yes) or radians (no).

endheader
time	pelvis_tilt	pelvis_list	pelvis_rotation	pelvis_tx	pelvis_ty	pelvis_tz	hip_flexion_r	hip_adduction_r	hip_rotation_r	knee_angle_r	knee_angle_r_beta	ankle_angle_r	subtalar_angle_r	mtp_angle_r	hip_flexion_l	hip_adduction_l	hip_rotation_l	knee_angle_l	knee_angle_l_beta	ankle_angle_l	subtalar_angle_l	mtp_angle_l	L5_S1_Flex_Ext	L5_S1_Lat_Bending	L5_S1_axial_rotation	L4_L5_Flex_Ext	L4_L5_Lat_Bending	L4_L5_axial_rotation	L3_L4_Flex_Ext	L3_L4_Lat_Bending	L3_L4_axial_rotation	L2_L3_Flex_Ext	L2_L3_Lat_Bending	L2_L3_axial_rotation	L1_L2_Flex_Ext	L1_L2_Lat_Bending	L1_L2_axial_rotation	L1_T12_Flex_Ext	L1_T12_Lat_Bending	L1_T12_axial_rotation	Abs_r3	Abs_r2	Abs_r1	Abs_t1	Abs_t2	neck_flexion	neck_bending	neck_rotation	arm_flex_r	arm_add_r	arm_rot_r	elbow_flex_r	pro_sup_r	wrist_flex_r	wrist_dev_r	arm_flex_l	arm_add_l	arm_rot_l	elbow_flex_l	pro_sup_l	wrist_flex_l	wrist_dev_l
1.300000	5.717192	-5.684997	82.290250	0.476990	0.655157	0.655020	2.593907	2.594088	-0.133318	8.354158	0.145808	18.600298	5.173725	0.000000	2.961068	-2.619789	-9.193661	13.249438	0.231246	22.566351	-8.240089	0.000000	0.088945	0.386753	0.570268	0.165179	0.514382	0.605909	0.146127	0.940352	0.605909	0.101655	0.940352	0.498984	0.082594	0.788668	0.463342	0.050823	0.599081	0.427701	0.635324	4.375032	3.171657	0.000000	0.000000	23.538832	-2.435607	11.164599	16.855445	-12.050598	63.730341	58.872105	11.941919	-16.318227	16.268749	16.808171	-10.841750	60.611258	54.569339	75.434304	-17.412275	20.708584
1.320000	5.703070	-5.771462	82.309031	0.476720	0.654941	0.656071	2.755714	2.590251	0.062155	8.311895	0.145070	18.655767	4.861950	0.000000	3.106371	-2.604925	-9.139473	13.219131	0.230717	22.515017	-8.321692	0.000000	0.089513	0.390099	0.571839	0.166235	0.518831	0.607579	0.147061	0.948486	0.607579	0.102305	0.948486	0.500360	0.083122	0.795489	0.464620	0.051148	0.604263	0.428880	0.639383	4.412876	3.180400	0.000000	0.000000	23.600941	-2.594701	11.045243	16.337556	-12.342293	63.063956	59.634459	10.590965	-17.814267	16.887897	17.044640	-10.959169	61.062899	55.075299	75.605644	-17.592649	21.189753
1.340000	5.671405	-5.842705	82.274661	0.476522	0.654742	0.657047	2.897728	2.563089	0.263811	8.276301	0.144449	18.710185	4.631909	0.000000	3.223885	-2.573408	-9.163844	13.173882	0.229928	22.508786	-8.371871	0.000000	0.089498	0.390703	0.595641	0.166206	0.519634	0.632869	0.147036	0.949954	0.632869	0.102287	0.949954	0.521186	0.083107	0.796721	0.483958	0.051139	0.605198	0.446731	0.639272	4.419705	3.312777	0.000000	0.000000	23.606564	-2.762749	10.898353	15.764417	-12.610427	62.329464	60.306307	9.452211	-19.069035	17.496572	17.331925	-11.052586	61.618531	55.510134	76.083136	-17.657972	21.788553
1.360000	5.619924	-5.892352	82.184829	0.476410	0.654559	0.657961	3.010918	2.509073	0.453381	8.243247	0.143872	18.772973	4.510046	0.000000	3.307059	-2.522294	-9.267444	13.113468	0.228873	22.552836	-8.386790	0.000000	0.088201	0.388255	0.648244	0.163799	0.516379	0.688760	0.144906	0.944003	0.688760	0.100805	0.944003	0.567214	0.081904	0.791730	0.526699	0.050398	0.601407	0.486183	0.630014	4.392019	3.605341	0.000000	0.000000	23.545448	-2.943093	10.686414	15.090225	-12.835625	61.342491	60.932072	8.704897	-19.964506	18.122259	17.731246	-11.140480	62.349852	55.887257	76.970227	-17.502948	22.545233
1.380000	5.559498	-5.929548	82.057933	0.476369	0.654397	0.658852	3.101130	2.440933	0.618218	8.207322	0.143245	18.821629	4.499038	0.000000	3.370676	-2.466857	-9.447969	13.045632	0.227689	22.639260	-8.340916	0.000000	0.086665	0.384898	0.717255	0.160946	0.511914	0.762083	0.142382	0.935840	0.762083	0.099049	0.935840	0.627598	0.080477	0.784883	0.582769	0.049520	0.596206	0.537941	0.619040	4.354039	3.989155	0.000000	0.000000	23.409847	-3.143905	10.476750	14.367321	-12.986312	60.132230	61.499192	8.480960	-20.523129	18.678894	18.203171	-11.247122	63.172200	56.227537	78.198665	-17.369963	23.366048
1.400000	5.493221	-5.955618	81.894685	0.476368	0.654239	0.659747	3.170234	2.358538	0.750066	8.166680	0.142535	18.861108	4.611704	0.000000	3.418132	-2.408371	-9.682711	12.974568	0.226449	22.758014	-8.237989	0.000000	0.084121	0.381638	0.800910	0.156221	0.507579	0.850967	0.138202	0.927915	0.850967	0.096142	0.927915	0.700796	0.078115	0.778237	0.650739	0.048067	0.591158	0.600682	0.600868	4.317169	4.454420	0.000000	0.000000	23.237602	-3.390055	10.217466	13.605223	-13.055594	58.671047	62.037761	8.804827	-20.710034	19.045476	18.707306	-11.374582	63.942630	56.578171	79.634202	-17.286293	24.243203
1.420000	5.428373	-5.974293	81.718546	0.476384	0.654074	0.660672	3.220090	2.271194	0.825170	8.114465	0.141624	18.892393	4.837906	0.000000	3.460123	-2.350964	-9.934698	12.906900	0.225268	22.892082	-8.133324	0.000000	0.080441	0.379542	0.886296	0.149388	0.504790	0.941690	0.132157	0.922818	0.941690	0.091936	0.922818	0.775509	0.074698	0.773961	0.720116	0.045964	0.587910	0.664722	0.574585	4.293452	4.929315	0.000000	0.000000	23.038200	-3.674642	9.957736	12.858887	-13.020598	57.013470	62.517741	9.917551	-20.454313	19.240019	19.216384	-11.544369	64.639856	56.967197	80.941613	-17.475675	25.066659
1.440000	5.369603	-5.992367	81.543285	0.476378	0.653881	0.661632	3.263565	2.181956	0.836666	8.058858	0.140654	18.942451	5.189694	0.000000	3.502870	-2.294252	-10.146070	12.838796	0.224079	23.020850	-8.072300	0.000000	0.076412	0.379276	0.965308	0.141905	0.504437	1.025639	0.125538	0.922171	1.025639	0.087331	0.922171	0.844644	0.070956	0.773419	0.784312	0.043662	0.587498	0.723981	0.545805	4.290444	5.368751	0.000000	0.000000	22.825243	-4.009617	9.685792	12.172278	-12.898535	55.265809	62.943456	11.850827	-19.737515	19.229191	19.656844	-11.743213	65.120707	57.436552	82.157188	-18.055750	25.874159
1.460000	5.324155	-6.011706	81.361542	0.476354	0.653657	0.662629	3.301743	2.102912	0.847155	7.992347	0.139493	18.999869	5.596308	0.000000	3.541929	-2.256001	-10.421859	12.768518	0.222853	23.169749	-7.905152	0.000000	0.071698	0.381671	1.041685	0.133151	0.507623	1.106790	0.117793	0.927995	1.106790	0.081944	0.927995	0.911474	0.066579	0.778304	0.846369	0.040968	0.591209	0.781264	0.512133	4.317541	5.793538	0.000000	0.000000	22.638512	-4.396365	9.389895	11.523635	-12.707986	53.418465	63.342159	14.518135	-18.553854	19.039394	20.027376	-11.942801	65.393818	57.966961	83.120345	-19.114279	26.479788
1.480000	5.289797	-6.041257	81.215174	0.476259	0.653389	0.663676	3.347481	2.033253	0.840041	7.920242	0.138234	19.068494	6.018402	0.000000	3.599642	-2.227096	-10.660875	12.705375	0.221751	23.300682	-7.734415	0.000000	0.067614	0.386935	1.101803	0.125565	0.514623	1.170665	0.111082	0.940793	1.170665	0.077276	0.940793	0.964077	0.062786	0.789037	0.895215	0.038634	0.599362	0.826352	0.482958	4.377082	6.127895	0.000000	0.000000	22.479150	-4.809386	9.163079	10.918439	-12.447701	51.491763	63.671455	17.944791	-16.961193	18.778365	20.298614	-12.152410	65.394340	58.586155	83.455959	-20.619509	26.824223
1.500000	5.261602	-6.071963	81.094714	0.476115	0.653103	0.664763	3.392694	1.972110	0.876372	7.845397	0.136928	19.134984	6.361706	0.000000	3.663489	-2.197946	-10.841274	12.644621	0.220690	23.378990	-7.624988	0.000000	0.063330	0.393372	1.150793	0.117611	0.523185	1.222717	0.104045	0.956446	1.222717	0.072380	0.956446	1.006943	0.058809	0.802165	0.935019	0.036187	0.609334	0.863094	0.452362	4.449907	6.400363	0.000000	0.000000	22.332585	-5.196006	8.978167	10.332631	-12.128724	49.464643	63.913549	22.082287	-14.951593	18.523819	20.484356	-12.358967	65.121445	59.247090	83.235809	-22.319066	26.946970
1.520000	5.235408	-6.104475	81.006467	0.475920	0.652816	0.665891	3.448540	1.910948	0.876102	7.790133	0.135963	19.210432	6.701108	0.000000	3.735852	-2.167630	-10.975304	12.584856	0.219647	23.407410	-7.549695	0.000000	0.058897	0.400386	1.187953	0.109378	0.532514	1.262200	0.096762	0.973499	1.262200	0.067314	0.973499	1.039459	0.054692	0.816468	0.965212	0.033654	0.620198	0.890965	0.420697	4.529251	6.607039	0.000000	0.000000	22.194654	-5.529199	8.901779	9.821606	-11.792482	47.514258	64.087182	26.523142	-12.670782	18.249973	20.630822	-12.578710	64.712465	59.925593	82.384071	-24.035401	26.914207
1.540000	5.200606	-6.147194	80.979696	0.475673	0.652532	0.666995	3.521376	1.841961	0.853405	7.765610	0.135535	19.273045	6.949908	0.000000	3.820074	-2.126849	-11.065443	12.512070	0.218377	23.379312	-7.468435	0.000000	0.056589	0.405552	1.208420	0.105092	0.539385	1.283946	0.092970	0.986060	1.283946	0.064676	0.986060	1.057368	0.052549	0.827003	0.981841	0.032335	0.628201	0.906315	0.404211	4.587691	6.720870	0.000000	0.000000	22.066487	-5.786705	8.902184	9.406064	-11.477257	45.780296	64.246672	30.884419	-10.420022	17.905094	20.698696	-12.810683	64.136962	60.626940	81.418428	-25.552395	26.890563
